<svg width="889" height="200" viewBox="0 0 889 200" fill="none" xmlns="http://www.w3.org/2000/svg">
<g clip-path="url(#clip0_325_40)">
<path d="M71.1416 135.327L40.8179 47.062C40.6056 46.3722 40.1281 46.0273 39.3853 46.0273H28.0835C27.5529 46.0273 27.1284 46.2396 26.8101 46.6641C26.4917 47.0885 26.4121 47.5661 26.5713 48.0967L64.6948 158.965C64.9071 159.655 65.3846 160 66.1274 160H76.2354C76.9782 160 77.4557 159.655 77.668 158.965L115.792 48.0967C115.951 47.5661 115.871 47.0885 115.553 46.6641C115.234 46.2396 114.81 46.0273 114.279 46.0273H102.978C102.235 46.0273 101.731 46.3722 101.465 47.062L71.1416 135.327ZM152.721 101.581L167.127 66.9595L181.453 101.581H152.721ZM161.556 45.7886C161.131 45.7886 160.813 46.0008 160.601 46.4253L114.041 158.567C113.881 158.886 113.908 159.204 114.12 159.522C114.332 159.841 114.624 160 114.996 160H127.73C128.208 160 128.526 159.788 128.685 159.363L146.911 115.43H187.263L205.489 159.363C205.648 159.788 205.967 160 206.444 160H219.179C219.55 160 219.842 159.841 220.054 159.522C220.266 159.204 220.293 158.886 220.134 158.567L173.574 46.4253C173.415 46.0008 173.096 45.7886 172.619 45.7886H161.556ZM250.776 145.435V60.3535H273.379C285.159 60.3535 295.187 64.4922 303.464 72.7695C311.795 81.0999 315.96 91.1283 315.96 102.854C315.96 114.581 311.795 124.609 303.464 132.939C295.187 141.27 285.159 145.435 273.379 145.435H250.776ZM237.246 45.7886C236.556 45.7886 236.211 46.1335 236.211 46.8232V158.965C236.211 159.655 236.556 160 237.246 160H272.424C288.13 160 301.66 154.561 313.015 143.684C324.37 132.807 330.207 119.568 330.525 103.969C330.843 87.9977 325.378 74.3083 314.129 62.9004C302.934 51.4925 289.35 45.7886 273.379 45.7886H237.246ZM355.516 46.0273C354.826 46.0273 354.481 46.3722 354.481 47.062V158.965C354.481 159.655 354.826 160 355.516 160H368.012C368.701 160 369.046 159.655 369.046 158.965V47.062C369.046 46.3722 368.701 46.0273 368.012 46.0273H355.516ZM485.009 46.0273C484.213 46.0273 483.523 46.3457 482.939 46.9824L444.02 90.4385L405.18 46.9824C404.597 46.3457 403.907 46.0273 403.111 46.0273H398.495C397.805 46.0273 397.46 46.3722 397.46 47.062V158.965C397.46 159.655 397.805 160 398.495 160H410.274C410.964 160 411.309 159.655 411.309 158.965V74.6001L443.304 110.336C443.781 110.867 444.285 110.867 444.816 110.336L476.891 74.5205V158.965C476.891 159.655 477.236 160 477.925 160H489.705C490.394 160 490.739 159.655 490.739 158.965V47.062C490.739 46.3722 490.394 46.0273 489.705 46.0273H485.009ZM581.392 102.616L636.389 47.7783C636.707 47.46 636.76 47.0885 636.548 46.6641C636.389 46.2396 636.07 46.0273 635.593 46.0273H617.924C617.659 46.0273 617.42 46.1335 617.208 46.3457L574.07 89.3242V46.9824C574.07 46.2926 573.725 45.9478 573.035 45.9478H560.54C559.85 45.9478 559.505 46.2926 559.505 46.9824V158.965C559.505 159.655 559.85 160 560.54 160H573.035C573.725 160 574.07 159.655 574.07 158.965V115.668L621.028 159.682C621.187 159.894 621.426 160 621.744 160H639.97C640.448 160 640.766 159.788 640.925 159.363C641.138 158.939 641.058 158.567 640.687 158.249L581.392 102.616ZM705.075 145.435C693.348 145.435 683.347 141.296 675.069 133.019C666.792 124.742 662.653 114.74 662.653 103.014C662.653 91.3405 666.792 81.3387 675.069 73.0083C683.347 64.731 693.348 60.5923 705.075 60.5923C716.748 60.5923 726.75 64.731 735.08 73.0083C743.357 81.3387 747.496 91.3405 747.496 103.014C747.496 114.74 743.357 124.742 735.08 133.019C726.75 141.296 716.748 145.435 705.075 145.435ZM705.075 46.0273C689.369 46.0273 675.945 51.5986 664.802 62.7412C653.66 73.8838 648.088 87.3079 648.088 103.014C648.088 118.719 653.66 132.144 664.802 143.286C675.945 154.429 689.369 160 705.075 160C720.78 160 734.205 154.429 745.347 143.286C756.49 132.144 762.061 118.719 762.061 103.014C762.061 87.3079 756.49 73.8838 745.347 62.7412C734.205 51.5986 720.78 46.0273 705.075 46.0273ZM777.501 46.0273C776.812 46.0273 776.467 46.3722 776.467 47.062V59.478C776.467 60.1678 776.812 60.5127 777.501 60.5127H807.427V158.965C807.427 159.655 807.772 160 808.462 160H820.878C821.568 160 821.913 159.655 821.913 158.965V60.5127H851.759C852.449 60.5127 852.793 60.1678 852.793 59.478V47.062C852.793 46.3722 852.449 46.0273 851.759 46.0273H777.501Z" fill="black"/>
</g>
<defs>
<clipPath id="clip0_325_40">
<rect width="889" height="200" fill="white"/>
</clipPath>
</defs>
</svg>
